<svg width="25" height="24" viewBox="0 0 25 24" fill="none" xmlns="http://www.w3.org/2000/svg">
<path d="M18.7778 24C18.2196 24 17.6614 23.762 17.2974 23.2973C15.8048 21.3931 14.203 18.9335 12.7953 16.7686L12.6133 16.4853C11.9944 15.5445 11.9944 14.1957 12.6133 13.2663C13.123 12.5069 13.9846 12.0875 14.9189 12.1669C16.6421 12.3142 18.2803 12.3482 19.2025 11.2034C20.0762 10.138 20.2946 8.94789 20.3311 8.13181C20.3311 8.07514 20.3432 8.02981 20.3432 7.97313C20.3796 7.73511 20.6101 5.64958 19.154 4.39146C18.3167 3.66605 17.2852 3.5187 16.8484 3.4507C16.3023 3.37136 14.9189 3.25802 13.7176 3.94942C12.2735 4.77683 11.594 6.2163 11.3634 6.79435C9.49467 11.5888 8.90006 19.2169 8.70591 21.7331C8.68164 21.9938 8.6695 22.1978 8.65736 22.3678C8.59669 23.1159 8.01423 23.7393 7.22547 23.898C6.4367 24.0567 5.6358 23.7166 5.24749 23.0706L0.235822 14.7058C-0.261705 13.8897 0.0537906 12.8469 0.939631 12.3822C1.81334 11.9175 2.92974 12.2122 3.42727 13.0396L5.55086 16.576C5.96344 13.153 6.6794 8.90255 7.95355 5.63824C8.40254 4.49347 9.49467 2.38527 11.8367 1.0478C14.0695 -0.22165 16.4965 -0.0403004 17.4308 0.0957126C18.0618 0.186388 19.9913 0.469749 21.6537 1.89789C24.2991 4.18744 24.0928 7.50842 23.9958 8.33583C23.9351 9.63929 23.5589 11.5208 22.127 13.2663C20.5131 15.2498 18.1832 15.6352 16.3751 15.6352C17.6371 17.5734 19.0205 19.6589 20.2825 21.2571C20.8771 22.0165 20.6951 23.0819 19.8821 23.6373C19.5301 23.8866 19.154 24 18.7778 24Z" fill="#F36A46"/>
</svg>
