<svg width="34" height="36" viewBox="0 0 34 36" fill="none" xmlns="http://www.w3.org/2000/svg">
<path d="M26.2624 35.9998C25.4817 35.9998 24.701 35.6428 24.1919 34.9457C22.1044 32.0894 19.8641 28.4001 17.8954 25.1528L17.6408 24.7278C16.7753 23.3167 16.7753 21.2935 17.6408 19.8993C18.3536 18.7602 19.5586 18.1312 20.8654 18.2502C23.2754 18.4712 25.5666 18.5222 26.8564 16.8051C28.0784 15.2069 28.3839 13.4218 28.4348 12.1977C28.4348 12.1126 28.4517 12.0446 28.4517 11.9596C28.5027 11.6026 28.8251 8.47432 26.7885 6.58715C25.6175 5.49905 24.1749 5.27803 23.5639 5.17602C22.8002 5.05701 20.8654 4.887 19.1853 5.92409C17.1656 7.1652 16.2152 9.32439 15.8928 10.1915C13.2791 17.3831 12.4475 28.8252 12.176 32.5995C12.142 32.9905 12.1251 33.2966 12.1081 33.5516C12.0232 34.6737 11.2086 35.6088 10.1055 35.8468C9.0023 36.0848 7.88216 35.5748 7.33907 34.6057L0.329817 22.0585C-0.366018 20.8344 0.0752309 19.2703 1.31416 18.5732C2.53611 17.8762 4.0975 18.3182 4.79333 19.5593L7.76336 24.8638C8.3404 19.7293 9.34173 13.3538 11.1237 8.45732C11.7517 6.74016 13.2791 3.57788 16.5547 1.5717C19.6774 -0.332473 23.0717 -0.0604503 24.3786 0.143568C25.2611 0.27958 27.9596 0.70462 30.2847 2.84681C33.9845 6.28112 33.696 11.2626 33.5602 12.5037C33.4753 14.4589 32.9492 17.2811 30.9466 19.8993C28.6893 22.8746 25.4308 23.4527 22.902 23.4527C24.6671 26.3599 26.6018 29.4882 28.3669 31.8854C29.1985 33.0245 28.9439 34.6227 27.8068 35.4557C27.3146 35.8298 26.7885 35.9998 26.2624 35.9998Z" fill="white"/>
</svg>
